<?xml version="1.0" standalone="no"?><!DOCTYPE svg PUBLIC "-//W3C//DTD SVG 1.1//EN" "http://www.w3.org/Graphics/SVG/1.1/DTD/svg11.dtd"><svg t="1626836207549" class="icon" viewBox="0 0 1024 1024" version="1.1" xmlns="http://www.w3.org/2000/svg" p-id="934" xmlns:xlink="http://www.w3.org/1999/xlink" width="200" height="200"><defs><style type="text/css"></style></defs><path d="M511.8 0c-143 0-258.9 115.9-258.9 258.9s115.9 258.9 258.9 258.9 258.9-115.9 258.9-258.9S654.8 0 511.8 0z m0 425.7C419.7 425.7 345 351 345 258.9S419.7 92 511.8 92s166.8 74.7 166.8 166.8S604 425.7 511.8 425.7zM972 976.2V816.9c0-113.9-93.2-207.1-207.1-207.1H258.7c-113.9 0-207.1 93.2-207.1 207.1V978c0 2.2 0.2 4.4 0.5 6.5 1.5 22 20 39.5 42.3 39.5H930c23.3 0 42.4-19.1 42.4-42.4 0-1.9-0.1-3.7-0.4-5.4zM258.7 701.8h506.2c63.5 0 115.1 51.5 115.1 115.1v122.2H143.6V816.9c0-63.5 51.6-115.1 115.1-115.1z" p-id="935" fill="#707070"></path></svg>